<svg width="1690" height="1702" xmlns="http://www.w3.org/2000/svg" xmlns:xlink="http://www.w3.org/1999/xlink" overflow="hidden"><defs><clipPath id="clip0"><rect x="454" y="448" width="1690" height="1702"/></clipPath></defs><g clip-path="url(#clip0)" transform="translate(-454 -448)"><path d="M1039 487.65C1039 465.752 1056.75 448 1078.65 448L1519.35 448C1541.25 448 1559 465.752 1559 487.65L1559 928.35C1559 950.248 1541.25 968 1519.35 968L1078.65 968C1056.75 968 1039 950.248 1039 928.35Z" fill="#6200FF" fill-rule="evenodd" fill-opacity="0.6"/><path d="M455 487.574C455 465.718 472.718 448 494.574 448L934.426 448C956.282 448 974 465.718 974 487.574L974 928.426C974 950.282 956.282 968 934.426 968L494.574 968C472.718 968 455 950.282 455 928.426Z" fill="#6200FF" fill-rule="evenodd" fill-opacity="0.2"/><path d="M1039 1078.65C1039 1056.75 1056.75 1039 1078.65 1039L1519.35 1039C1541.25 1039 1559 1056.75 1559 1078.65L1559 1519.35C1559 1541.25 1541.25 1559 1519.35 1559L1078.65 1559C1056.75 1559 1039 1541.25 1039 1519.35Z" fill="#6200FF" fill-rule="evenodd" fill-opacity="0.2"/><path d="M1039 1669.65C1039 1647.75 1056.75 1630 1078.65 1630L1519.35 1630C1541.25 1630 1559 1647.75 1559 1669.65L1559 2110.35C1559 2132.25 1541.25 2150 1519.35 2150L1078.65 2150C1056.75 2150 1039 2132.25 1039 2110.35Z" fill="#6200FF" fill-rule="evenodd" fill-opacity="0.2"/><path d="M1624 487.65C1624 465.752 1641.75 448 1663.65 448L2104.35 448C2126.25 448 2144 465.752 2144 487.65L2144 928.35C2144 950.248 2126.25 968 2104.35 968L1663.65 968C1641.75 968 1624 950.248 1624 928.35Z" fill="#6200FF" fill-rule="evenodd" fill-opacity="0.2"/><path d="M1624 1078.65C1624 1056.75 1641.75 1039 1663.65 1039L2104.35 1039C2126.25 1039 2144 1056.75 2144 1078.65L2144 1519.35C2144 1541.25 2126.25 1559 2104.35 1559L1663.65 1559C1641.75 1559 1624 1541.25 1624 1519.35Z" fill="#6200FF" fill-rule="evenodd" fill-opacity="0.2"/><path d="M1624 1669.65C1624 1647.75 1641.75 1630 1663.65 1630L2104.35 1630C2126.25 1630 2144 1647.75 2144 1669.65L2144 2110.35C2144 2132.25 2126.25 2150 2104.35 2150L1663.65 2150C1641.75 2150 1624 2132.25 1624 2110.35Z" fill="#6200FF" fill-rule="evenodd" fill-opacity="0.2"/><path d="M455 1078.57C455 1056.72 472.718 1039 494.574 1039L934.425 1039C956.281 1039 973.999 1056.72 973.999 1078.57L973.999 1519.43C973.999 1541.28 956.281 1559 934.425 1559L494.574 1559C472.718 1559 455 1541.28 455 1519.43Z" fill="#6200FF" fill-rule="evenodd"/><path d="M454 1669.65C454 1647.75 471.752 1630 493.65 1630L934.35 1630C956.248 1630 974 1647.75 974 1669.65L974 2110.35C974 2132.25 956.248 2150 934.35 2150L493.65 2150C471.752 2150 454 2132.25 454 2110.35Z" fill="#6200FF" fill-rule="evenodd" fill-opacity="0.2"/><path d="M1819 1955C1819 1883.2 1877.2 1825 1949 1825 2020.8 1825 2079 1883.2 2079 1955 2079 2026.8 2020.8 2085 1949 2085 1877.2 2085 1819 2026.8 1819 1955Z" fill="#E91E63" fill-rule="evenodd"/></g></svg>